<?xml version="1.0" encoding="UTF-8"?>
<svg width="126px" height="96px" viewBox="155 120 126 96" xmlns="http://www.w3.org/2000/svg" xmlns:xlink="http://www.w3.org/1999/xlink" version="1.1">
 <!-- Generated by Pixelmator Pro 1.6.2 -->
 <g id="vecteezy_mountains-logo-design-vector-template_6470734-Скопировать">
  <g id="g10">
   <path id="path20" d="M241.895 196.362 C234.941 200.772 226.694 203.327 217.849 203.327 214.72 203.327 211.667 203.007 208.719 202.399 209.157 202.043 209.645 201.678 210.188 201.315 213.62 199.017 221.145 198.743 221.277 196.938 221.409 195.132 215.601 195.351 212.828 195.022 210.055 194.694 210.913 193.599 214.412 192.177 216.316 191.402 213.825 190.942 211.138 190.439 204.726 189.241 209.785 186.99 214.365 185.378 218.716 183.847 222.546 182.888 219.018 184.113 216.658 184.932 215.146 185.867 214.629 186.669 212.986 189.222 220.729 188.386 221.499 188.367 225.448 188.268 229.871 188.57 227.174 190.766 226.526 191.293 226.336 191.847 228.985 192.157 233.794 192.72 240.592 193.604 241.895 196.362 Z" fill="#2eb6fc" fill-opacity="1" stroke="none"/>
   <path id="path22" d="M236.493 199.29 C231.505 201.566 226.029 202.957 220.264 203.262 221.476 202.762 223.06 202.134 224.154 201.798 226.155 201.182 224.257 200.925 221.332 200.669 218.407 200.412 223.732 198.944 226.834 197.675 229.937 196.406 226.223 196.5 224.202 196.429 222.181 196.359 222.698 195.818 224.249 194.878 225.8 193.938 220.371 194.619 219.102 194.525 217.833 194.431 218.89 193.609 219.901 192.997 220.912 192.386 218.867 192.504 217.48 192.457 216.093 192.41 217.268 191.705 218.844 191.141 220.418 190.577 218.937 190.106 216.187 190.483 213.437 190.859 213.085 190.271 213.813 190.036 214.542 189.801 214.072 189.589 212.568 189.495 211.064 189.401 210.241 189.19 210.758 188.837 211.275 188.485 212.45 188.085 211.393 187.991 210.335 187.897 209.889 187.427 211.11 187.075 212.332 186.722 212.662 186.605 211.98 186.534 211.495 186.484 212.54 186.051 213.182 185.807 213.333 185.75 213.484 185.694 213.636 185.639 213.66 185.634 216.186 185.135 215.854 185.301 215.521 185.467 213.391 186.212 213.699 186.212 214.007 186.212 214.212 186.468 213.84 186.673 213.468 186.879 212.108 187.392 212.852 187.443 213.596 187.495 213.982 187.776 213.674 188.059 213.366 188.341 212.365 188.893 213.725 188.855 215.085 188.816 215.867 188.893 215.572 189.098 215.277 189.304 214.15 189.823 217.843 189.585 221.535 189.348 223.59 189.175 222.666 189.637 221.743 190.099 221.794 190.304 223.487 190.099 225.181 189.893 225.796 190.407 224.103 191.33 222.41 192.254 220.511 193.178 224.719 192.921 228.927 192.664 229.388 193.639 228.516 193.896 227.644 194.152 226.258 194.666 231.185 195.128 236.11 195.589 236.11 196.102 235.29 196.923 234.468 197.745 230.928 198.565 233.853 198.873 234.856 198.979 235.751 199.133 236.493 199.29 Z" fill="#28a0de" fill-opacity="1" stroke="none"/>
   <path id="path30" d="M202.879 148.418 C202.357 148.205 201.881 148.004 201.749 147.925 201.418 147.727 197.496 144.673 197.496 144.673 197.496 144.673 196.03 142.215 195.653 141.739 195.275 141.264 194.802 141.581 194.377 141.898 193.952 142.215 191.353 144.237 191.069 144.554 190.786 144.872 190.219 145.982 190.219 145.982 L186.344 148.916 184.643 151.215 166.651 167.945 165.39 174.004 268.455 170.966 271.107 161.247 C271.107 161.247 253.349 147.821 252.572 147.164 251.794 146.506 248.683 144.862 248.683 144.862 245.817 142.115 244.577 140.926 242.163 139.096 240.996 138.211 240.622 138.394 239.835 138.834 238.694 139.474 237.216 140.89 235.656 142.341 235.266 142.704 234.742 143.185 234.141 143.717 232.648 142.607 231.099 141.93 230.86 141.609 230.564 141.212 228.372 138.129 227.839 137.831 227.305 137.533 223.869 136.141 223.573 135.743 223.276 135.346 219.781 132.067 219.247 131.917 218.714 131.768 212.374 137.682 211.545 138.428 210.715 139.173 210.004 142.156 209.589 142.454 209.436 142.565 206.506 145.176 202.879 148.418" fill="#2a282a" fill-opacity="1" stroke="none"/>
   <path id="path32" d="M194.524 145.077 C194.145 145.373 193.724 145.695 193.378 146.008 193.19 146.284 193.01 146.646 192.865 146.929 L192.619 147.416 186.55 152.05 184.804 154.41 C185.272 154.163 185.325 154.155 185.902 153.806 186.478 153.458 188.376 152.202 188.376 152.202 188.376 152.202 186.295 154.34 185.487 154.951 184.679 155.563 180.78 158.37 180.584 158.577 180.388 158.784 180.29 160.016 180.29 160.016 L180.434 160.306 C180.434 160.306 184.368 157.531 184.625 157.29 184.882 157.049 185.533 156.473 185.996 156.346 186.458 156.218 186.803 156.097 187.061 155.714 187.319 155.332 187.892 154.956 188.346 154.73 188.8 154.503 189.692 153.711 189.692 153.711 189.692 153.711 188.636 155.026 186.27 157.028 183.903 159.031 182.075 161.552 182.112 161.664 182.149 161.777 182.38 161.965 184.065 160.665 185.751 159.366 187.372 158.238 187.708 158.019 188.489 157.51 189.409 156.662 190.133 156.059 189.609 156.956 186.71 160.847 185.837 161.537 184.027 162.969 183.942 167.07 184.851 167.176 L207.426 167.56 207.426 167.397 204.919 159.171 C204.29 158.667 198.596 157.887 198.667 157.67 198.737 157.452 200.518 155.742 200.518 155.742 L195.586 157.71 C195.586 157.71 196.935 155.998 197.916 154.775 197.785 154.567 197.529 154.346 197.44 154.222 197.312 154.043 197.504 153.544 197.355 153.383 197.206 153.223 197.036 153.437 197.036 153.437 197.036 153.437 195.527 154.988 193.612 156.021 193.612 156.021 195.797 153.202 196.706 151.964 196.377 151.802 196.051 151.634 195.724 151.469 L193.44 152.64 195.789 150.382 C195.789 150.382 195.124 149.952 195.014 149.741 194.905 149.531 194.993 148.972 194.993 148.972 L193.225 149.247 C193.225 149.247 194.186 148.267 194.262 148.158 194.313 148.084 194.384 147.675 194.425 147.415 L194.42 145.976 C194.42 145.976 194.467 145.655 194.525 145.077 Z M240.749 140.773 C240.351 141.052 239.957 141.395 239.629 141.68 238.879 142.333 238.16 143.015 237.437 143.689 236.916 144.173 236.368 144.677 235.8 145.183 236.076 145.4 236.334 145.569 236.493 145.597 236.992 145.684 237.865 145.492 238.219 145.579 238.572 145.666 239.237 146.068 239.32 146.19 239.404 146.312 240.214 146.923 240.464 147.132 240.713 147.341 244.164 149.661 244.663 150.289 245.162 150.917 247.033 153.237 247.033 153.237 247.033 153.237 261.172 163.426 262.312 164.391 L265.915 161.247 259.387 156.188 259.387 156.188 259.385 156.187 259.368 156.174 C259.103 155.987 257.158 155.228 257.032 155.104 256.902 154.976 256.954 154.428 256.774 154.288 256.589 154.144 254.497 155.312 254.223 155.519 L255.115 152.942 C254.757 152.823 254.399 152.697 254.043 152.576 L251.838 153.633 253.506 151.675 C253.506 151.675 251.941 151.192 251.79 150.998 251.639 150.804 251.609 150.242 251.609 150.242 L249.922 150.734 C249.922 150.734 250.666 149.647 250.718 149.529 250.723 149.519 250.727 149.502 250.73 149.48 L250.57 149.356 C250.456 149.267 245.171 148.603 245.171 148.603 245.171 148.603 244.94 148.38 244.923 148.079 244.906 147.778 244.259 147.426 244.061 147.241 243.864 147.056 243.956 146.434 243.739 146.274 243.521 146.114 243.394 145.702 243.394 145.702 243.394 145.702 242.506 146.09 241.758 146.528 242.376 145.23 242.922 144.056 242.907 143.989 242.872 143.837 242.77 143.269 242.77 143.269 L242.758 142.89 238.952 145.205 C238.952 145.205 240.783 143.457 240.846 143.262 240.909 143.068 240.93 142.592 240.93 142.592 L241.571 141.975 241.264 141.828 240.524 142.335 C240.524 142.335 241.118 141.414 241.107 141.348 241.1 141.311 240.912 141.019 240.749 140.772 Z M218.878 135.978 C218.633 136.235 218.403 136.477 218.198 136.687 217.025 137.887 215.793 139.293 214.547 140.443 214.401 140.704 214.269 141.066 214.172 141.315 213.703 142.513 213.358 143.888 212.233 144.787 211.05 145.777 209.894 146.856 208.748 147.878 207.743 148.773 206.74 149.67 205.736 150.567 206.741 150.063 209.038 148.901 209.75 148.47 210.672 147.913 212.225 146.866 212.225 146.866 212.225 146.866 210.144 149.004 209.336 149.616 208.528 150.227 207.958 150.682 207.762 150.89 207.566 151.096 207.469 152.329 207.469 152.329 L207.612 152.618 C207.612 152.618 208.217 152.195 208.474 151.954 208.731 151.713 209.382 151.138 209.845 151.01 210.307 150.882 210.652 150.761 210.91 150.379 211.168 149.996 211.741 149.62 212.195 149.394 212.649 149.167 213.541 148.375 213.541 148.375 213.541 148.375 212.485 149.689 210.119 151.692 207.752 153.695 207.29 154.771 207.327 154.883 207.364 154.995 207.595 155.183 209.28 153.884 210.966 152.584 211.813 151.802 212.149 151.583 212.485 151.364 216.604 148.772 216.604 148.772 216.604 148.772 213.746 151.401 212.012 152.773 211.08 153.51 210.209 154.587 209.563 155.468 210.49 155.193 211.351 154.936 211.692 154.825 212.561 154.542 213.352 154.318 214.056 153.831 214.761 153.345 217.132 151.865 217.132 151.865 217.132 151.865 213.976 154.899 213.739 155.055 213.502 155.211 212.891 155.252 212.661 155.427 212.43 155.602 211.38 156.934 211.178 157.122 210.976 157.311 210.756 158.027 210.756 158.027 210.756 158.027 212.548 156.905 212.97 156.726 213.391 156.547 214.353 156.183 214.353 156.183 214.353 156.183 214.831 155.667 214.947 155.58 215.062 155.493 216.133 155.022 216.252 154.873 216.371 154.725 217.868 153.146 218.531 152.75 219.193 152.354 222.966 149.698 222.966 149.698 222.966 149.698 221.544 151.03 221.216 151.37 220.888 151.71 220.107 152.067 219.832 152.377 219.558 152.686 218.892 153.333 218.479 153.728 215.217 156.842 210.872 165.003 212.858 167.397 L249.311 167.397 249.311 163.822 C246.73 161.723 244.018 159.34 241.355 157.724 239.582 156.648 231.418 156.069 231.482 155.901 231.749 155.202 233.049 153.941 234.185 152.941 232.943 153.373 230.734 154.112 230.562 153.957 230.321 153.74 230.155 153.489 230.074 153.236 229.993 152.984 230.104 151.984 230.104 151.984 L224.226 155.327 C224.226 155.327 224.697 154.445 224.816 154.346 224.935 154.247 226.074 153.775 226.208 153.655 226.341 153.534 229.257 150.677 229.257 150.677 L229.129 150.075 227.341 150.603 228.783 149.395 230.167 149.147 228.607 148.608 C228.607 148.608 227.326 148.83 226.842 149.069 226.358 149.308 223.405 150.678 223.405 150.678 223.405 150.678 225.896 148.803 226.138 148.624 226.379 148.445 227.675 147.119 227.675 147.119 L226.195 147.143 C226.195 147.143 226.123 146.57 226.038 146.414 225.953 146.259 224.899 146.116 224.558 145.817 224.376 145.659 223.993 145.368 223.674 145.131 222.946 145.512 221.515 146.361 221.163 146.625 220.721 146.955 220.32 147.128 220.159 147.326 219.998 147.526 218.752 148.982 218.752 148.982 L219.936 146.798 C219.936 146.798 220.77 146.037 221.264 145.59 221.756 145.142 222.009 143.867 221.981 143.741 221.953 143.615 220.835 143.36 220.835 143.36 220.835 143.36 220.604 143.137 220.587 142.836 220.571 142.536 219.923 142.184 219.725 141.999 219.528 141.813 219.62 141.192 219.403 141.031 219.186 140.871 219.043 141.154 219.043 141.154 219.043 141.154 217.686 143.257 215.714 144.828 215.714 144.828 218.605 138.899 218.571 138.747 218.536 138.595 218.434 138.026 218.434 138.026 L218.407 137.198 Z" fill="#88c24e" fill-opacity="1" stroke="none"/>
   <path id="path34" d="M218.878 135.978 C218.633 136.235 218.403 136.477 218.198 136.687 217.025 137.887 215.793 139.293 214.547 140.443 214.401 140.704 214.269 141.066 214.172 141.315 213.703 142.513 213.358 143.888 212.233 144.787 211.05 145.777 209.894 146.856 208.748 147.878 207.743 148.773 206.74 149.67 205.736 150.567 206.741 150.063 209.038 148.901 209.75 148.47 210.672 147.913 212.225 146.866 212.225 146.866 212.225 146.866 210.143 149.004 209.336 149.616 208.528 150.227 207.958 150.682 207.762 150.889 207.566 151.096 207.469 152.329 207.469 152.329 L207.612 152.618 C207.612 152.618 208.217 152.195 208.474 151.954 208.731 151.713 209.382 151.138 209.845 151.01 210.307 150.882 210.652 150.761 210.91 150.379 211.168 149.996 211.741 149.62 212.195 149.394 212.649 149.167 213.541 148.375 213.541 148.375 213.541 148.375 212.485 149.689 210.119 151.692 207.752 153.695 207.29 154.771 207.327 154.883 207.364 154.995 207.595 155.183 209.28 153.884 210.966 152.584 211.813 151.802 212.149 151.583 212.485 151.364 216.604 148.772 216.604 148.772 216.604 148.772 213.746 151.401 212.012 152.773 211.08 153.51 210.209 154.587 209.563 155.469 210.49 155.193 211.351 154.936 211.692 154.825 212.561 154.542 213.352 154.318 214.056 153.831 214.761 153.345 217.132 151.865 217.132 151.865 217.132 151.865 213.976 154.899 213.739 155.055 213.502 155.211 212.891 155.252 212.661 155.427 212.43 155.601 211.38 156.934 211.178 157.122 210.976 157.311 210.756 158.028 210.756 158.028 210.756 158.028 212.548 156.905 212.97 156.726 213.391 156.547 214.353 156.183 214.353 156.183 214.353 156.183 214.831 155.667 214.947 155.58 215.062 155.493 216.132 155.022 216.252 154.873 216.371 154.725 217.868 153.146 218.531 152.75 219.193 152.354 222.966 149.698 222.966 149.698 222.966 149.698 221.544 151.03 221.217 151.37 220.889 151.709 220.107 152.067 219.832 152.377 219.558 152.686 218.892 153.333 218.479 153.728 215.217 156.842 210.872 165.003 212.858 167.397 L243.009 167.397 C243.316 165.598 243.47 163.221 242.412 162.269 240.61 160.647 238.103 159.504 238.103 159.504 238.103 159.504 235.688 158.773 234.186 158.773 232.684 158.773 227.214 158.194 227.214 158.194 L227.984 155.578 222.239 158.773 C222.239 158.773 222.043 157.238 222.239 156.187 222.435 155.136 224.916 151.984 224.916 151.984 L222.5 153.588 219.366 156.518 C219.366 156.518 219.562 155.965 220.15 154.86 220.737 153.754 224.655 148.004 224.655 148.004 L220.084 149.773 216.625 151.211 218.191 146.4 215.58 148.059 217.081 145.239 213.425 147.285 C213.425 147.285 216.298 140.484 216.625 139.875 216.951 139.267 218.878 135.979 218.878 135.979 Z M240.749 140.773 L238.889 143.793 239.622 143.608 238.374 145.142 239.466 145.72 241.11 145.157 240.842 146.852 241.574 147.328 242.526 147.079 C242.526 147.079 243.111 147.782 243.16 147.968 243.209 148.154 243.697 148.837 243.697 148.837 L244.673 149.642 248.016 150.304 247.309 152.04 249.844 151.995 C249.844 151.995 249.606 153.337 249.606 153.583 249.606 153.829 250.345 154.388 250.345 154.388 L251.269 154.679 251.243 154.992 253.171 154.344 252.827 156.423 253.144 156.803 255.706 155.998 255.494 157.876 264.231 162.715 262.312 164.391 C261.172 163.426 247.033 153.237 247.033 153.237 247.033 153.237 245.162 150.917 244.663 150.289 244.164 149.661 240.713 147.341 240.464 147.132 240.214 146.923 239.404 146.312 239.32 146.19 239.237 146.068 238.572 145.666 238.219 145.579 237.865 145.492 236.992 145.684 236.493 145.597 236.333 145.569 236.076 145.4 235.8 145.183 236.368 144.677 236.916 144.173 237.437 143.689 238.16 143.015 238.879 142.333 239.629 141.68 239.956 141.394 240.35 141.052 240.749 140.773 Z M194.524 145.077 C194.524 145.077 193.629 146.474 193.629 146.659 193.629 146.844 193.12 148.016 192.937 148.263 192.755 148.509 190.316 151.562 190.316 151.562 L192.464 150.915 190.17 155.078 191.954 154.523 191.189 158.773 194.212 157.245 192.396 162.777 195.923 159.95 199.233 159.249 199.15 161.036 199.73 163.209 202.543 160.651 C202.543 160.651 203.164 161.667 204.736 163.594 205.287 164.27 206.107 165.059 206.938 165.797 L207.425 167.397 207.425 167.56 197.173 167.386 193.801 167.328 191.344 167.286 184.851 167.176 C183.942 167.07 184.026 162.969 185.837 161.536 186.71 160.846 189.609 156.956 190.133 156.059 189.409 156.662 188.488 157.51 187.708 158.019 187.372 158.238 185.75 159.366 184.065 160.665 182.379 161.965 182.149 161.777 182.111 161.664 182.074 161.552 183.903 159.031 186.27 157.028 188.636 155.026 189.691 153.711 189.691 153.711 189.691 153.711 188.8 154.503 188.346 154.73 187.892 154.956 187.319 155.332 187.061 155.714 186.803 156.097 186.458 156.218 185.996 156.346 185.533 156.474 184.881 157.049 184.625 157.29 184.368 157.531 180.434 160.306 180.434 160.306 L180.29 160.016 C180.29 160.016 180.388 158.784 180.584 158.576 180.779 158.37 184.679 155.563 185.487 154.951 186.294 154.34 188.376 152.202 188.376 152.202 188.376 152.202 186.478 153.458 185.901 153.806 185.325 154.155 185.271 154.163 184.804 154.41 L186.549 152.05 192.618 147.416 192.865 146.928 C193.01 146.645 193.19 146.284 193.377 146.008 193.724 145.694 194.144 145.373 194.524 145.077 Z" fill="#629137" fill-opacity="1" stroke="none"/>
   <path id="path36" d="M176.972 170.366 C173.92 170.632 172.056 169.341 171.107 168.374 172.008 168.923 173.247 169.163 174.592 168.52 173.661 168.814 172.15 168.364 171.157 167.608 172.151 168.127 173.588 168.46 174.962 167.831 172.278 167.903 170.887 166.684 170.213 165.734 171.11 166.563 172.622 167.131 174.297 166.331 173.645 166.536 172.71 166.378 171.868 166.005 172.607 166.113 173.563 166.043 174.778 165.61 171.383 165.678 169.989 163.471 169.989 163.471 169.989 163.471 171.627 164.41 173.49 163.434 171.136 163.584 169.994 162.202 169.52 161.36 170.297 162.133 171.619 162.538 172.765 162.056 172.19 162.143 171.571 161.984 171.003 161.664 171.618 161.811 172.346 161.811 173.111 161.441 171.832 161.473 170.21 160.859 169.374 159.425 169.953 159.933 170.659 160.269 171.571 160.204 171.059 160.123 170.433 159.732 169.851 159.199 170.352 159.481 171.062 159.734 171.946 159.675 170.216 159.413 169.607 158.165 169.607 158.165 169.607 158.165 169.979 158.799 171.622 158.879 169.649 158.229 168.429 156.022 168.429 156.022 168.429 156.022 169.454 157.468 171.162 157.412 169.876 156.837 169.106 155.82 169.106 155.82 169.106 155.82 169.725 156.331 170.695 156.504 169.78 156.086 169.154 155.276 168.756 154.565 169.193 155.018 169.741 155.261 170.36 155.161 169.799 154.987 169.24 154.515 168.797 153.924 169.205 154.276 169.664 154.501 170.113 154.643 169.06 153.833 168.282 152.646 167.886 151.098 167.69 150.334 167.607 148.984 167.438 148.327 167.269 148.984 167.185 150.334 166.99 151.098 166.594 152.646 165.815 153.833 164.763 154.643 165.211 154.501 165.67 154.276 166.079 153.924 165.636 154.515 165.077 154.987 164.515 155.161 165.135 155.261 165.682 155.018 166.12 154.565 165.722 155.276 165.096 156.086 164.18 156.504 165.15 156.331 165.769 155.82 165.769 155.82 165.769 155.82 165 156.837 163.713 157.412 165.421 157.468 166.447 156.022 166.447 156.022 166.447 156.022 165.227 158.229 163.253 158.879 164.896 158.799 165.268 158.165 165.268 158.165 165.268 158.165 164.66 159.413 162.929 159.675 163.813 159.734 164.523 159.481 165.025 159.199 164.442 159.732 163.817 160.123 163.304 160.204 164.217 160.269 164.923 159.933 165.501 159.425 164.665 160.859 163.044 161.473 161.765 161.441 162.529 161.811 163.258 161.811 163.872 161.664 163.304 161.984 162.685 162.143 162.111 162.056 163.257 162.538 164.579 162.133 165.355 161.36 164.882 162.202 163.739 163.584 161.385 163.434 163.249 164.41 164.887 163.471 164.887 163.471 164.887 163.471 163.493 165.678 160.097 165.61 161.313 166.043 162.268 166.113 163.008 166.005 162.165 166.378 161.23 166.536 160.579 166.331 162.254 167.131 163.766 166.563 164.663 165.734 163.989 166.684 162.598 167.903 159.913 167.831 161.288 168.46 162.724 168.127 163.719 167.608 162.726 168.364 161.215 168.814 160.283 168.52 161.628 169.163 162.868 168.923 163.769 168.374 162.82 169.341 160.749 171.106 157.697 170.84 158.875 171.253 160.814 170.964 162.386 170.548 161.247 171.242 159.78 171.53 158.506 171.377 160.672 172.295 162.803 171.499 164.004 170.45 162.996 171.897 161.065 172.618 159.576 172.436 160.713 172.809 162.325 172.855 163.444 172.34 163.444 172.34 162.994 172.822 162.096 173.337 L167.438 173.337 172.779 173.337 C171.882 172.822 171.431 172.34 171.431 172.34 172.551 172.855 174.162 172.809 175.299 172.436 173.81 172.618 171.879 171.897 170.871 170.45 172.072 171.499 174.202 172.295 176.369 171.377 175.095 171.53 173.628 171.242 172.489 170.548 174.061 170.964 175.793 170.779 176.971 170.366 Z" fill="#2a282a" fill-opacity="1" stroke="none"/>
   <path id="path38" d="M194.595 166.374 C190.086 166.766 187.331 164.859 185.93 163.43 187.26 164.241 189.092 164.596 191.079 163.646 189.703 164.08 187.47 163.415 186.003 162.297 187.473 163.064 189.595 163.557 191.626 162.628 187.66 162.734 185.604 160.932 184.608 159.529 185.934 160.754 188.168 161.594 190.643 160.411 189.68 160.714 188.299 160.48 187.054 159.93 188.147 160.09 189.559 159.986 191.354 159.345 186.337 159.447 184.277 156.184 184.277 156.184 184.277 156.184 186.698 157.572 189.451 156.13 185.973 156.351 184.285 154.31 183.585 153.065 184.732 154.207 186.686 154.806 188.379 154.094 187.53 154.222 186.616 153.988 185.776 153.516 186.684 153.732 187.761 153.732 188.891 153.185 187.001 153.232 184.604 152.324 183.37 150.206 184.224 150.957 185.267 151.453 186.615 151.357 185.858 151.238 184.934 150.66 184.073 149.872 184.815 150.289 185.864 150.663 187.17 150.575 184.613 150.188 183.713 148.344 183.713 148.344 183.713 148.344 184.263 149.282 186.692 149.398 183.775 148.439 181.972 145.178 181.972 145.178 181.972 145.178 183.488 147.315 186.012 147.232 184.11 146.382 182.974 144.879 182.974 144.879 182.974 144.879 183.888 145.634 185.321 145.89 183.969 145.272 183.044 144.075 182.456 143.026 183.102 143.694 183.912 144.053 184.826 143.906 183.997 143.648 183.171 142.951 182.516 142.078 183.12 142.597 183.798 142.93 184.461 143.14 182.906 141.944 181.755 140.19 181.171 137.902 180.882 136.772 180.758 134.779 180.508 133.807 180.258 134.779 180.135 136.772 179.846 137.902 179.261 140.19 178.11 141.944 176.556 143.14 177.219 142.93 177.896 142.597 178.5 142.078 177.845 142.951 177.02 143.648 176.19 143.906 177.105 144.053 177.914 143.694 178.561 143.026 177.973 144.075 177.048 145.272 175.695 145.89 177.128 145.634 178.043 144.879 178.043 144.879 178.043 144.879 176.906 146.382 175.005 147.232 177.529 147.315 179.044 145.178 179.044 145.178 179.044 145.178 177.241 148.439 174.325 149.398 176.753 149.282 177.303 148.344 177.303 148.344 177.303 148.344 176.404 150.188 173.846 150.575 175.153 150.663 176.202 150.289 176.943 149.872 176.083 150.66 175.158 151.238 174.401 151.357 175.749 151.453 176.793 150.957 177.647 150.206 176.412 152.324 174.016 153.232 172.126 153.185 173.256 153.732 174.332 153.732 175.24 153.516 174.401 153.988 173.486 154.222 172.637 154.094 174.331 154.806 176.284 154.207 177.432 153.065 176.732 154.31 175.043 156.351 171.565 156.13 174.318 157.572 176.74 156.184 176.74 156.184 176.74 156.184 174.68 159.447 169.662 159.345 171.458 159.986 172.87 160.09 173.963 159.93 172.717 160.48 171.336 160.715 170.374 160.411 172.849 161.594 175.083 160.754 176.408 159.529 175.413 160.932 173.357 162.734 169.39 162.628 171.421 163.557 173.543 163.064 175.014 162.297 173.546 163.415 171.313 164.08 169.937 163.646 171.924 164.596 173.756 164.241 175.087 163.43 173.685 164.859 170.625 167.467 166.116 167.074 167.856 167.684 170.721 167.258 173.044 166.643 171.361 167.667 169.193 168.093 167.311 167.868 170.512 169.224 173.66 168.048 175.434 166.497 173.946 168.635 171.093 169.701 168.892 169.432 170.572 169.983 172.953 170.051 174.608 169.29 174.608 169.29 173.942 170.002 172.615 170.764 L180.508 170.764 188.401 170.764 C187.075 170.002 186.409 169.29 186.409 169.29 188.064 170.051 190.445 169.983 192.125 169.432 189.924 169.701 187.071 168.635 185.582 166.497 187.357 168.048 190.504 169.224 193.706 167.868 191.824 168.093 189.656 167.667 187.973 166.643 190.295 167.258 192.856 166.983 194.596 166.374 Z" fill="#2a282a" fill-opacity="1" stroke="none"/>
   <path id="path40" d="M199.151 162.951 C196.162 163.212 194.335 161.947 193.405 161 194.288 161.537 195.502 161.772 196.82 161.143 195.907 161.431 194.427 160.989 193.454 160.249 194.429 160.758 195.836 161.084 197.182 160.468 194.553 160.538 193.189 159.344 192.529 158.413 193.408 159.225 194.89 159.782 196.531 158.998 195.892 159.2 194.977 159.044 194.151 158.679 194.876 158.785 195.811 158.716 197.002 158.292 193.676 158.359 192.31 156.197 192.31 156.197 192.31 156.197 193.915 157.116 195.741 156.161 193.434 156.307 192.315 154.953 191.851 154.128 192.612 154.885 193.907 155.282 195.03 154.81 194.467 154.895 193.861 154.74 193.304 154.427 193.906 154.57 194.619 154.57 195.369 154.208 194.116 154.238 192.527 153.637 191.709 152.233 192.275 152.73 192.967 153.059 193.86 152.996 193.358 152.916 192.746 152.533 192.175 152.011 192.667 152.287 193.362 152.535 194.229 152.477 192.533 152.22 191.936 150.998 191.936 150.998 191.936 150.998 192.301 151.62 193.911 151.696 191.977 151.06 190.782 148.899 190.782 148.899 190.782 148.899 191.787 150.316 193.46 150.26 192.199 149.697 191.446 148.7 191.446 148.7 191.446 148.7 192.053 149.201 193.002 149.37 192.105 148.962 191.493 148.167 191.102 147.472 191.531 147.915 192.068 148.153 192.674 148.055 192.124 147.885 191.577 147.422 191.142 146.843 191.543 147.188 191.992 147.408 192.432 147.548 191.401 146.755 190.638 145.591 190.25 144.075 190.059 143.325 189.977 142.004 189.811 141.36 189.646 142.004 189.563 143.326 189.372 144.075 188.984 145.591 188.222 146.755 187.191 147.548 187.63 147.408 188.08 147.188 188.48 146.843 188.046 147.422 187.498 147.885 186.948 148.055 187.555 148.153 188.091 147.915 188.52 147.472 188.13 148.167 187.517 148.961 186.62 149.37 187.57 149.201 188.176 148.7 188.176 148.7 188.176 148.7 187.423 149.697 186.162 150.26 187.836 150.316 188.84 148.899 188.84 148.899 188.84 148.899 187.645 151.06 185.711 151.696 187.321 151.62 187.686 150.998 187.686 150.998 187.686 150.998 187.09 152.22 185.394 152.477 186.26 152.535 186.956 152.287 187.447 152.011 186.877 152.533 186.264 152.916 185.762 152.996 186.656 153.059 187.348 152.73 187.914 152.233 187.095 153.637 185.507 154.238 184.254 154.208 185.003 154.57 185.716 154.57 186.318 154.427 185.762 154.74 185.155 154.895 184.593 154.81 185.715 155.282 187.011 154.885 187.771 154.128 187.307 154.953 186.188 156.306 183.882 156.161 185.707 157.116 187.313 156.197 187.313 156.197 187.313 156.197 185.947 158.359 182.62 158.292 183.811 158.716 184.747 158.785 185.472 158.679 184.646 159.044 183.73 159.2 183.092 158.998 184.733 159.782 186.214 159.225 187.093 158.413 186.433 159.344 185.07 160.538 182.44 160.468 183.786 161.084 185.193 160.758 186.168 160.249 185.195 160.989 183.715 161.431 182.802 161.143 184.12 161.772 185.334 161.537 186.217 161 185.288 161.947 183.258 163.677 180.269 163.416 181.422 163.82 183.322 163.538 184.862 163.13 183.747 163.809 182.309 164.091 181.061 163.943 183.184 164.841 185.27 164.062 186.447 163.034 185.46 164.451 183.568 165.157 182.109 164.979 183.223 165.345 184.802 165.39 185.899 164.885 185.899 164.885 185.458 165.357 184.578 165.863 L189.811 165.863 195.044 165.863 C194.165 165.357 193.723 164.885 193.723 164.885 194.82 165.39 196.399 165.345 197.513 164.979 196.054 165.157 194.162 164.451 193.175 163.034 194.352 164.062 196.439 164.841 198.561 163.943 197.314 164.091 195.876 163.809 194.76 163.13 196.301 163.538 197.998 163.355 199.152 162.951 Z" fill="#2a282a" fill-opacity="1" stroke="none"/>
   <path id="path42" d="M278 159.247 C276.899 160.873 275.805 162.503 274.693 164.121 274.693 170.101 274.693 176.08 274.693 182.059 247.026 180.772 221.474 183.114 194.643 190.07 193.992 189.478 193.339 188.887 192.691 188.29 192.052 189.242 191.422 190.2 190.793 191.159 177.856 195.165 169.895 198.699 157.698 204.544 L160.075 196.492 160.095 178.029 157.741 173.813 C173.597 168.001 189.206 164.405 205.728 162.124 230.812 158.661 252.295 158.482 278 159.247 Z" fill="#2a282a" fill-opacity="1" stroke="none"/>
   <path id="path44" d="M256.486 177.336 C256.843 177.878 257.211 178.425 257.579 178.967 255.482 178.986 253.386 179.036 251.29 179.09 251.646 178.528 252.015 177.966 252.383 177.405 L252.383 170.267 252.383 163.124 C252.015 162.572 251.646 162.03 251.29 161.483 253.386 161.468 255.482 161.448 257.579 161.458 257.211 162.005 256.843 162.552 256.486 163.109 256.486 165.479 256.486 167.853 256.486 170.223 256.486 172.592 256.486 174.967 256.486 177.336 Z M187.46 172.282 C187.148 171.981 186.846 171.675 186.545 171.37 185.865 171.528 185.185 171.685 184.516 171.853 184.204 172.306 183.902 172.765 183.601 173.213 183.601 175.395 183.601 177.578 183.601 179.76 183.601 181.943 183.601 184.125 183.601 186.307 183.902 186.598 184.204 186.884 184.516 187.169 185.185 186.953 185.865 186.746 186.545 186.539 186.846 186.076 187.148 185.613 187.46 185.145 L187.46 178.716 Z M179.698 172.671 C180.446 171.523 181.204 170.385 181.962 169.252 184.337 168.705 186.713 168.168 189.099 167.666 189.846 168.42 190.593 169.178 191.351 169.927 191.351 172.528 191.351 175.129 191.351 177.73 191.351 180.336 191.351 182.938 191.351 185.539 190.593 186.652 189.846 187.77 189.099 188.908 186.713 189.647 184.337 190.415 181.962 191.214 181.204 190.529 180.446 189.849 179.698 189.15 L179.698 180.907 Z M212.439 163.931 C213.03 165.936 213.631 167.937 214.223 169.932 214.812 171.918 215.427 173.893 216.029 175.868 L216.029 170.553 216.029 165.227 C215.684 164.7 215.338 164.173 215.003 163.646 216.977 163.434 218.951 163.232 220.936 163.035 220.579 163.641 220.233 164.242 219.887 164.848 219.887 167.72 219.887 170.597 219.887 173.464 219.887 176.336 219.887 179.208 219.887 182.075 218.193 182.346 216.498 182.627 214.803 182.913 214.167 181.016 213.53 179.11 212.907 177.203 212.281 175.283 211.647 173.351 211.023 171.415 211.023 173.149 211.023 174.888 211.023 176.627 211.023 178.366 211.023 180.105 211.023 181.839 211.368 182.366 211.714 182.888 212.07 183.405 210.152 183.77 208.246 184.149 206.339 184.543 206.673 183.888 207.019 183.233 207.365 182.578 L207.365 174.449 207.365 166.316 C207.019 165.779 206.673 165.242 206.339 164.709 208.368 164.439 210.398 164.173 212.439 163.931 Z M222.809 162.872 C227.025 162.522 231.24 162.222 235.455 161.971 236.046 163.517 236.637 165.06 237.228 166.592 236.458 166.202 235.689 165.813 234.931 165.424 233.649 165.508 232.377 165.596 231.106 165.68 231.106 167.878 231.106 170.065 231.106 172.257 231.106 174.449 231.106 176.637 231.106 178.829 231.474 179.366 231.842 179.903 232.21 180.435 230.158 180.672 228.106 180.918 226.054 181.184 226.411 180.553 226.768 179.927 227.136 179.307 L227.136 172.656 C227.136 170.444 227.136 168.222 227.147 166.005 225.876 166.119 224.604 166.237 223.333 166.36 222.564 166.887 221.795 167.419 221.036 167.951 221.627 166.252 222.218 164.562 222.809 162.872 Z M240.417 173.952 C241.644 173.873 242.87 173.804 244.097 173.74 243.451 171.282 242.803 168.813 242.168 166.34 241.577 168.867 240.997 171.409 240.417 173.951 Z M246.16 161.577 C245.747 162.202 245.346 162.828 244.945 163.458 245.647 165.799 246.361 168.143 247.063 170.469 247.767 172.799 248.479 175.124 249.193 177.449 249.65 178.006 250.119 178.558 250.587 179.12 248.401 179.198 246.227 179.307 244.052 179.435 244.387 178.893 244.722 178.356 245.067 177.814 244.945 177.41 244.821 177.001 244.711 176.597 243.093 176.695 241.488 176.794 239.882 176.902 239.77 177.346 239.659 177.789 239.559 178.228 239.882 178.705 240.216 179.188 240.551 179.671 238.365 179.844 236.18 180.036 234.005 180.248 234.485 179.597 234.964 178.942 235.444 178.296 236.135 175.824 236.827 173.36 237.518 170.907 238.209 168.454 238.9 166.02 239.603 163.591 239.213 163.01 238.823 162.429 238.443 161.847 241.008 161.739 243.584 161.651 246.16 161.576 Z M204.755 182.317 C203.997 183.332 203.25 184.352 202.503 185.386 200.116 185.937 197.741 186.529 195.366 187.144 194.608 186.455 193.861 185.766 193.113 185.061 193.102 182.351 193.102 179.632 193.102 176.917 L193.102 168.769 C192.746 168.203 192.4 167.641 192.054 167.079 194.05 166.705 196.057 166.341 198.065 166.001 197.708 166.68 197.351 167.365 197.005 168.04 197.005 170.474 197.005 172.902 197.005 175.331 197.005 177.755 197.005 180.189 197.005 182.612 197.306 182.898 197.608 183.189 197.919 183.475 198.589 183.317 199.269 183.154 199.949 182.997 200.251 182.578 200.551 182.155 200.863 181.736 L200.863 174.558 200.863 167.38 C200.507 166.823 200.15 166.267 199.804 165.71 201.8 165.4 203.807 165.099 205.815 164.813 205.458 165.469 205.101 166.124 204.755 166.775 204.755 169.37 204.755 171.962 204.755 174.548 204.755 177.139 204.755 179.731 204.755 182.317 Z M264.593 161.517 C265.184 163.404 265.789 165.296 266.378 167.178 266.971 169.074 267.582 170.981 268.184 172.867 L268.184 168.015 268.184 163.148 C267.838 162.621 267.492 162.098 267.158 161.577 269.132 161.625 271.116 161.695 273.101 161.754 272.745 162.281 272.388 162.788 272.042 163.305 272.042 165.971 272.042 168.636 272.042 171.296 272.042 173.957 272.042 176.622 272.042 179.282 270.347 179.203 268.652 179.139 266.957 179.08 266.322 177.237 265.686 175.395 265.062 173.562 264.437 171.729 263.801 169.887 263.177 168.05 263.177 169.612 263.177 171.168 263.177 172.73 263.177 174.292 263.177 175.848 263.177 177.41 263.523 177.942 263.868 178.479 264.225 179.011 262.307 178.977 260.4 178.967 258.494 178.962 258.828 178.444 259.174 177.927 259.519 177.415 L259.519 170.202 259.519 162.985 C259.174 162.468 258.828 161.955 258.494 161.438 260.523 161.458 262.552 161.473 264.593 161.517 Z M169.205 172.759 C168.882 173.494 168.569 174.227 168.257 174.971 168.96 178.272 169.674 181.548 170.387 184.795 171.023 180.888 171.658 176.996 172.305 173.134 172.082 172.765 171.859 172.39 171.636 172.011 174.168 171.282 176.71 170.587 179.252 169.922 178.873 170.74 178.494 171.572 178.115 172.405 178.115 175.434 178.115 178.464 178.115 181.489 178.115 184.514 178.115 187.544 178.115 190.569 178.461 191.12 178.818 191.662 179.174 192.199 177.189 192.948 175.204 193.702 173.231 194.495 173.565 193.687 173.911 192.874 174.257 192.061 L174.257 186.016 174.257 179.962 C173.811 182.469 173.363 184.986 172.93 187.504 172.494 190.036 172.06 192.593 171.625 195.15 170.788 195.509 169.952 195.864 169.116 196.229 168.681 193.997 168.245 191.751 167.822 189.499 167.398 187.239 166.975 184.957 166.551 182.666 166.551 184.76 166.551 186.854 166.551 188.943 166.551 191.031 166.551 193.125 166.551 195.214 166.897 195.781 167.254 196.342 167.61 196.894 165.625 197.805 163.64 198.756 161.667 199.702 162.012 198.805 162.369 197.898 162.726 196.997 L162.726 187.159 C162.726 183.878 162.737 180.593 162.748 177.316 162.358 176.651 161.968 175.976 161.589 175.292 164.12 174.42 166.662 173.572 169.205 172.759 Z" fill="#ffffff" fill-opacity="1" stroke="none"/>
   <path id="path46" d="M278 156.621 C274.08 156.963 271.685 155.305 270.466 154.062 271.624 154.767 273.216 155.075 274.943 154.25 273.747 154.628 271.806 154.049 270.53 153.078 271.808 153.745 273.653 154.173 275.419 153.365 271.97 153.457 270.183 151.891 269.317 150.671 270.47 151.736 272.412 152.466 274.563 151.438 273.727 151.702 272.526 151.498 271.444 151.02 272.394 151.159 273.621 151.068 275.182 150.511 270.82 150.6 269.03 147.764 269.03 147.764 269.03 147.764 271.134 148.97 273.528 147.717 270.504 147.909 269.037 146.134 268.428 145.052 269.426 146.045 271.123 146.565 272.595 145.947 271.858 146.058 271.062 145.854 270.333 145.444 271.122 145.632 272.058 145.632 273.04 145.156 271.397 145.197 269.314 144.408 268.241 142.567 268.983 143.219 269.89 143.651 271.062 143.568 270.404 143.464 269.601 142.96 268.853 142.276 269.497 142.639 270.409 142.964 271.545 142.887 269.322 142.551 268.54 140.948 268.54 140.948 268.54 140.948 269.018 141.763 271.129 141.864 268.593 141.03 267.026 138.195 267.026 138.195 267.026 138.195 268.344 140.053 270.537 139.98 268.885 139.242 267.897 137.935 267.897 137.935 267.897 137.935 268.692 138.592 269.938 138.815 268.762 138.278 267.958 137.236 267.446 136.324 268.009 136.905 268.712 137.217 269.507 137.089 268.786 136.866 268.069 136.259 267.499 135.5 268.024 135.952 268.613 136.241 269.189 136.424 267.837 135.385 266.838 133.859 266.329 131.87 266.078 130.888 265.97 129.155 265.753 128.311 265.536 129.155 265.428 130.888 265.177 131.87 264.669 133.859 263.669 135.385 262.317 136.424 262.893 136.241 263.482 135.952 264.008 135.5 263.438 136.259 262.721 136.866 261.999 137.089 262.795 137.218 263.498 136.905 264.06 136.324 263.549 137.236 262.745 138.278 261.569 138.815 262.815 138.592 263.61 137.935 263.61 137.935 263.61 137.935 262.622 139.242 260.969 139.98 263.163 140.053 264.48 138.195 264.48 138.195 264.48 138.195 262.913 141.03 260.378 141.864 262.489 141.763 262.967 140.948 262.967 140.948 262.967 140.948 262.185 142.551 259.962 142.887 261.097 142.964 262.01 142.639 262.654 142.276 261.906 142.96 261.103 143.464 260.444 143.568 261.616 143.651 262.523 143.219 263.266 142.567 262.192 144.408 260.109 145.198 258.467 145.156 259.449 145.631 260.384 145.632 261.173 145.444 260.444 145.854 259.649 146.058 258.911 145.947 260.383 146.565 262.081 146.045 263.079 145.052 262.47 146.134 261.003 147.909 257.979 147.717 260.372 148.97 262.477 147.764 262.477 147.764 262.477 147.764 260.687 150.6 256.325 150.511 257.886 151.068 259.113 151.159 260.063 151.02 258.981 151.498 257.78 151.702 256.943 151.438 259.095 152.466 261.037 151.736 262.189 150.671 261.323 151.891 259.536 153.457 256.088 153.365 257.854 154.173 259.699 153.745 260.977 153.078 259.701 154.049 257.76 154.628 256.564 154.25 258.291 155.075 259.883 154.767 261.04 154.062 259.822 155.305 257.161 157.572 253.241 157.23 254.754 157.76 257.245 157.39 259.265 156.855 257.801 157.746 255.917 158.116 254.28 157.921 257.063 159.099 259.8 158.077 261.342 156.729 260.048 158.588 257.568 159.513 255.654 159.279 257.115 159.759 259.185 159.818 260.624 159.157 260.624 159.157 260.045 159.775 258.892 160.438 L265.753 160.438 272.615 160.438 C271.462 159.775 270.882 159.157 270.882 159.157 272.321 159.818 274.392 159.759 275.852 159.279 273.938 159.513 271.458 158.588 270.164 156.729 271.707 158.077 274.443 159.099 277.226 157.921 275.59 158.116 273.705 157.746 272.242 156.855 274.261 157.39 276.487 157.151 277.999 156.621 Z" fill="#2a282a" fill-opacity="1" stroke="none"/>
   <path id="path48" d="M265.198 157.832 C262.441 158.072 260.756 156.906 259.9 156.033 260.713 156.528 261.833 156.745 263.048 156.165 262.207 156.43 260.842 156.023 259.944 155.34 260.843 155.809 262.141 156.11 263.383 155.542 260.957 155.607 259.7 154.506 259.092 153.647 259.902 154.396 261.268 154.91 262.781 154.187 262.193 154.373 261.348 154.229 260.587 153.892 261.255 153.99 262.119 153.926 263.216 153.535 260.148 153.597 258.889 151.602 258.889 151.602 258.889 151.602 260.37 152.451 262.053 151.569 259.926 151.705 258.894 150.456 258.466 149.695 259.168 150.393 260.362 150.759 261.397 150.324 260.878 150.403 260.319 150.259 259.806 149.971 260.361 150.103 261.019 150.103 261.71 149.768 260.554 149.797 259.089 149.242 258.335 147.947 258.857 148.406 259.495 148.709 260.319 148.651 259.856 148.578 259.291 148.224 258.764 147.743 259.218 147.998 259.859 148.226 260.658 148.173 259.094 147.936 258.545 146.808 258.545 146.808 258.545 146.808 258.881 147.382 260.365 147.453 258.583 146.866 257.48 144.873 257.48 144.873 257.48 144.873 258.407 146.179 259.95 146.128 258.788 145.609 258.092 144.69 258.092 144.69 258.092 144.69 258.652 145.152 259.528 145.308 258.701 144.93 258.135 144.198 257.776 143.556 258.171 143.965 258.666 144.185 259.225 144.094 258.718 143.937 258.213 143.511 257.813 142.977 258.182 143.294 258.597 143.498 259.001 143.627 258.051 142.895 257.348 141.823 256.99 140.424 256.813 139.733 256.738 138.514 256.585 137.921 256.432 138.514 256.357 139.733 256.18 140.424 255.823 141.823 255.119 142.895 254.169 143.627 254.573 143.498 254.988 143.294 255.358 142.977 254.957 143.511 254.452 143.937 253.945 144.094 254.504 144.185 254.999 143.965 255.394 143.556 255.035 144.198 254.469 144.93 253.642 145.308 254.518 145.151 255.078 144.69 255.078 144.69 255.078 144.69 254.383 145.609 253.22 146.128 254.763 146.179 255.69 144.873 255.69 144.873 255.69 144.873 254.587 146.866 252.805 147.453 254.289 147.382 254.625 146.808 254.625 146.808 254.625 146.808 254.076 147.936 252.512 148.173 253.311 148.226 253.952 147.998 254.406 147.743 253.879 148.224 253.314 148.578 252.851 148.651 253.675 148.709 254.314 148.406 254.836 147.947 254.081 149.242 252.616 149.797 251.46 149.768 252.151 150.102 252.809 150.103 253.365 149.971 252.851 150.259 252.292 150.403 251.773 150.324 252.808 150.759 254.002 150.393 254.704 149.695 254.277 150.456 253.244 151.705 251.117 151.569 252.801 152.451 254.281 151.602 254.281 151.602 254.281 151.602 253.022 153.597 249.954 153.535 251.051 153.926 251.915 153.99 252.583 153.892 251.822 154.229 250.977 154.372 250.389 154.187 251.902 154.91 253.268 154.396 254.078 153.647 253.47 154.506 252.213 155.607 249.787 155.542 251.029 156.11 252.327 155.809 253.226 155.34 252.329 156.023 250.963 156.43 250.122 156.165 251.337 156.745 252.457 156.528 253.27 156.033 252.414 156.906 250.542 158.501 247.785 158.26 248.849 158.633 250.601 158.373 252.022 157.997 250.993 158.623 249.667 158.883 248.516 158.746 250.474 159.576 252.398 158.856 253.483 157.908 252.573 159.215 250.828 159.867 249.483 159.702 250.51 160.039 251.966 160.08 252.978 159.616 252.978 159.616 252.571 160.051 251.76 160.517 L256.586 160.517 261.412 160.517 C260.601 160.051 260.193 159.616 260.193 159.616 261.205 160.08 262.661 160.039 263.688 159.702 262.343 159.867 260.598 159.215 259.688 157.908 260.773 158.856 262.698 159.575 264.655 158.746 263.504 158.883 262.178 158.623 261.15 157.997 262.57 158.373 264.135 158.205 265.199 157.832 Z" fill="#2a282a" fill-opacity="1" stroke="none"/>
   <path id="path50" d="M238.176 128.195 C239.404 126.435 239.618 125.735 239.402 124.883 239.187 124.031 239.187 124.031 239.187 124.031 239.187 124.031 239.629 124.78 239.878 125.609 240.092 124.156 239.54 123 239.54 123 239.54 123 240.424 123.762 240.311 125.623 240.659 124.713 240.563 123.074 240.563 123.074 240.563 123.074 241.064 123.69 240.769 125.302 241.102 124.558 241.266 123.501 241.266 123.501 241.266 123.501 241.573 124.185 241.243 125.36 241.611 124.657 241.879 123.939 241.879 123.939 241.879 123.939 242.087 124.489 241.626 125.568 242.072 125.004 242.504 124.427 242.504 124.427 242.504 124.427 242.385 125.008 241.715 126.137 241.991 125.862 242.205 125.657 242.205 125.657 242.205 125.657 242.152 126.078 241.681 126.849 241.841 127.004 242.018 127.212 242.018 127.212 242.018 127.212 241.797 127.218 241.603 127.217 241.749 127.365 241.81 127.552 241.81 127.552 241.81 127.552 241.641 127.619 241.475 127.602 241.545 127.732 241.661 127.927 241.661 127.927 241.661 127.927 241.483 127.953 241.325 127.963 241.415 128.114 241.521 128.306 241.521 128.306 241.521 128.306 241.357 128.361 241.196 128.377 241.288 128.495 241.382 128.635 241.382 128.635 241.382 128.635 241.191 128.667 241 128.689 241.077 128.791 241.148 128.904 241.148 128.904 241.148 128.904 240.941 128.944 240.737 128.97 240.87 129.055 240.933 129.111 240.933 129.111 240.933 129.111 240.709 129.173 240.482 129.224 240.606 129.29 240.707 129.357 240.707 129.357 240.707 129.357 240.464 129.452 240.171 129.496 240.326 129.578 240.461 129.658 240.461 129.658 240.461 129.658 240.167 129.744 239.85 129.79 240.048 129.866 240.227 129.955 240.227 129.955 240.227 129.955 239.99 130.094 239.665 130.143 239.811 130.218 239.933 130.29 239.933 130.29 239.933 130.29 239.681 130.366 239.37 130.424 239.603 130.516 239.779 130.594 239.779 130.594 239.779 130.594 239.466 130.694 239.126 130.71 239.258 130.795 239.318 130.839 239.318 130.839 239.318 130.839 239.175 130.88 238.974 130.929 239.836 131.235 240.74 131.164 240.74 131.164 240.74 131.164 240.439 131.337 240.043 131.419 240.496 131.609 240.92 131.97 240.92 131.97 240.92 131.97 240.586 131.917 240.192 131.854 240.536 132.119 240.861 132.471 240.861 132.471 240.861 132.471 240.502 132.423 240.129 132.36 240.381 132.653 240.586 132.958 240.586 132.958 240.586 132.958 240.292 132.876 239.968 132.748 240.371 133.15 240.573 133.402 240.573 133.402 240.573 133.402 240.185 133.321 239.781 133.126 240.047 133.501 240.262 133.952 240.262 133.952 240.262 133.952 239.794 133.723 239.406 133.489 239.564 133.878 239.673 134.286 239.673 134.286 239.673 134.286 239.239 133.856 238.817 133.537 238.985 133.928 239.007 134.333 239.007 134.333 239.007 134.333 238.742 133.964 238.407 133.638 238.503 134.067 238.45 134.456 238.45 134.456 238.45 134.456 238.236 134.028 237.906 133.559 237.869 133.872 237.666 134.093 237.666 134.093 237.666 134.093 237.582 133.748 237.486 133.382 237.391 133.584 237.173 133.767 237.173 133.767 237.173 133.767 237.157 133.442 236.965 132.753 236.902 132.91 236.853 133.016 236.853 133.016 236.853 133.016 236.82 132.948 236.758 132.803 236.697 133.127 236.56 133.408 236.56 133.408 236.56 133.408 236.51 133.221 236.454 132.977 236.357 133.264 236.25 133.491 236.25 133.491 236.25 133.491 236.2 133.358 236.148 133.201 236.057 133.504 235.894 133.703 235.894 133.703 235.894 133.703 235.835 133.512 235.79 133.304 235.703 133.6 235.581 133.864 235.581 133.864 235.581 133.864 235.524 133.718 235.468 133.552 235.386 133.824 235.262 134.038 235.262 134.038 235.262 134.038 235.214 133.927 235.168 133.793 235.089 134.001 234.999 134.204 234.999 134.204 234.999 134.204 234.955 134.131 234.893 133.985 234.84 134.175 234.774 134.366 234.774 134.366 234.774 134.366 234.677 134.274 234.591 134.179 234.544 134.358 234.488 134.534 234.488 134.534 234.488 134.534 234.368 134.414 234.27 134.301 234.233 134.453 234.158 134.599 234.158 134.599 234.158 134.599 233.991 134.455 233.86 134.337 233.83 134.487 233.781 134.653 233.781 134.653 233.781 134.653 233.612 134.5 233.499 134.405 233.492 134.568 233.406 134.717 233.406 134.717 233.406 134.717 233.237 134.618 233.117 134.447 233.092 134.633 233.056 134.845 233.056 134.845 233.056 134.845 232.883 134.63 232.758 134.443 231.965 134.733 231.56 134.696 231.56 134.696 231.56 134.696 231.784 134.532 232.081 134.326 230.921 134.731 230.356 134.722 230.356 134.722 230.356 134.722 230.961 134.428 231.555 134.119 230.473 134.334 229.98 134.016 229.98 134.016 229.98 134.016 230.697 133.911 231.411 133.706 230.255 133.774 229.65 133.334 229.65 133.334 229.65 133.334 230.672 133.4 231.421 133.237 229.857 133.179 229.343 132.567 229.343 132.567 229.343 132.567 230.879 133.006 231.788 132.865 230.012 132.579 229.413 131.566 229.413 131.566 229.413 131.566 230.43 132.342 231.833 132.445 231.083 132.029 230.435 131.446 230.435 131.446 230.435 131.446 230.435 131.446 231.212 131.833 231.988 132.221 232.678 132.163 234.51 131.355 234.812 131.222 235.14 131.031 235.476 130.803 235.061 130.302 234.899 130.179 234.801 130.152 234.668 130.115 234.462 130.204 234.462 130.204 234.58 129.943 234.772 129.813 235.059 129.908 235.059 129.908 235.196 129.676 235.588 129.661 235.863 129.649 236.439 129.728 236.756 129.777 237.317 129.26 237.824 128.7 238.177 128.194 Z" fill="#2a282a" fill-opacity="1" stroke="none"/>
   <path id="path52" d="M180.994 200.125 L182.922 197.909 C183.177 197.616 183.402 197.617 183.608 197.795 183.813 197.974 183.845 198.197 183.59 198.49 L181.663 200.706 C181.408 200.999 181.182 200.999 180.977 200.82 180.772 200.641 180.74 200.418 180.994 200.125 Z M187.953 200.299 L187.261 199.797 184.83 203.15 C184.319 203.854 184.38 204.512 185.059 205.004 185.738 205.497 186.382 205.349 186.893 204.645 L189.324 201.293 188.669 200.819 186.207 204.215 C185.979 204.529 185.758 204.542 185.538 204.383 185.318 204.223 185.262 204.01 185.49 203.695 Z M191.466 202.623 L191.077 203.296 191.851 203.743 189.516 207.778 190.256 208.206 192.59 204.171 193.364 204.619 193.753 203.947 Z M196.522 206.095 L196.962 206.291 C197.21 206.401 197.301 206.596 197.143 206.95 L195.992 209.533 C195.833 209.887 195.627 209.949 195.379 209.838 L194.939 209.642 Z M196.058 205.037 L193.842 210.003 195.076 210.554 C195.857 210.902 196.433 210.64 196.787 209.846 L197.908 207.334 C198.263 206.54 198.073 205.936 197.292 205.588 Z M200.466 211.288 L201.405 208.507 C201.529 208.138 201.738 208.053 201.996 208.14 202.254 208.227 202.368 208.422 202.244 208.79 L201.305 211.572 C201.181 211.94 200.972 212.025 200.714 211.938 200.456 211.851 200.342 211.657 200.466 211.288 Z M200.578 208.285 L199.674 210.964 C199.396 211.788 199.671 212.406 200.466 212.674 201.261 212.942 201.854 212.618 202.133 211.793 L203.037 209.114 C203.315 208.29 203.039 207.672 202.245 207.404 201.45 207.136 200.856 207.46 200.578 208.285 Z M205.971 212.77 L206.639 209.911 C206.727 209.532 206.928 209.427 207.192 209.49 207.457 209.551 207.59 209.734 207.501 210.112 L206.833 212.971 C206.745 213.349 206.544 213.455 206.28 213.392 206.015 213.331 205.882 213.148 205.971 212.77 Z M205.795 209.769 L205.151 212.522 C204.953 213.37 205.286 213.958 206.103 214.149 206.92 214.34 207.48 213.96 207.678 213.113 L208.321 210.36 C208.52 209.512 208.186 208.924 207.369 208.733 206.552 208.542 205.993 208.922 205.795 209.769 Z M212.046 210.323 L212.455 210.371 C212.756 210.407 212.867 210.593 212.821 210.978 L212.758 211.51 C212.706 211.943 212.497 212.058 212.18 212.021 L211.849 211.981 Z M212.421 215.061 L213.285 215.164 C213.224 214.953 213.239 214.76 213.271 214.497 L213.369 213.664 C213.437 213.101 213.347 212.676 212.944 212.448 213.343 212.315 213.563 211.974 213.629 211.419 L213.68 210.995 C213.779 210.161 213.449 209.707 212.57 209.603 L211.29 209.451 210.647 214.85 211.495 214.951 211.757 212.753 212.05 212.788 C212.436 212.834 212.584 213.039 212.524 213.541 L212.423 214.389 C212.371 214.828 212.392 214.917 212.421 215.061 Z M223.121 213.347 L223.205 210.568 223.939 213.25 Z M225.261 214.83 L223.754 209.532 222.513 209.68 222.292 215.183 223.071 215.09 223.101 214.093 224.142 213.969 224.405 214.931 Z M228.156 209.642 L228.626 209.534 C228.891 209.473 229.081 209.573 229.169 209.951 L229.804 212.706 C229.892 213.085 229.764 213.258 229.499 213.319 L229.03 213.427 228.157 209.642 Z M227.149 209.078 L228.372 214.376 229.689 214.072 C230.522 213.88 230.824 213.324 230.629 212.476 L230.01 209.797 C229.814 208.949 229.299 208.582 228.467 208.774 Z M235.017 211.623 L232.98 207.629 232.163 207.905 234.697 212.789 235.904 212.382 234.96 206.961 234.217 207.212 235.017 211.624 Z M239.124 207.79 L238.499 206.41 239.844 205.801 239.524 205.093 237.4 206.054 239.642 211.008 241.765 210.048 241.445 209.34 240.1 209.948 239.444 208.497 240.512 208.014 240.192 207.307 Z M243.433 204.841 L246.308 207.735 247.071 207.3 244.377 202.576 243.716 202.953 245.328 205.781 242.953 203.388 242.022 203.919 244.716 208.643 245.384 208.262 Z M246.515 201.216 L246.969 201.846 247.694 201.324 250.419 205.105 251.112 204.605 248.387 200.824 249.112 200.302 248.658 199.671 Z M251.37 197.485 L250.721 198.041 253.412 201.188 C253.977 201.849 254.631 201.944 255.269 201.399 255.907 200.853 255.914 200.193 255.348 199.532 L252.657 196.385 252.043 196.91 254.77 200.098 C255.022 200.393 254.983 200.611 254.777 200.787 254.57 200.964 254.349 200.969 254.096 200.674 Z M255.806 194.35 L256.091 194.053 C256.301 193.835 256.515 193.858 256.796 194.127 L257.183 194.498 C257.496 194.799 257.463 195.036 257.242 195.266 L257.011 195.507 Z M259.814 196.906 L260.416 196.278 C260.211 196.2 260.066 196.071 259.875 195.888 L259.27 195.307 C258.861 194.914 258.467 194.73 258.042 194.914 258.177 194.516 258.038 194.134 257.634 193.747 L257.326 193.451 C256.721 192.87 256.16 192.859 255.547 193.498 L254.654 194.428 258.576 198.195 259.168 197.578 257.571 196.045 257.775 195.832 C258.045 195.552 258.297 195.557 258.662 195.907 L259.278 196.499 C259.598 196.806 259.681 196.842 259.814 196.906 Z M260.504 191.168 L259.315 190.23 260.228 189.071 259.618 188.59 258.175 190.421 262.446 193.786 263.889 191.957 263.279 191.476 262.365 192.634 261.114 191.649 261.84 190.727 261.23 190.247 Z M182.241 197.39 L180.386 199.523 C179.814 200.18 179.834 200.855 180.467 201.406 181.1 201.957 181.772 201.882 182.343 201.226 L184.199 199.092 C184.77 198.436 184.75 197.76 184.117 197.209 183.484 196.659 182.812 196.733 182.241 197.39" fill="#2a282a" fill-opacity="1" stroke="none"/>
  </g>
 </g>
</svg>
